<svg xmlns="http://www.w3.org/2000/svg" width="1200" height="630" viewBox="0 0 1200 630" role="img" aria-labelledby="title desc">
  <title id="title">Teja K G | Manufacturing Engineering & Automation</title>
  <desc id="desc">Professional engineering portfolio focused on manufacturing productivity, automation, medical devices and semiconductor equipment.</desc>
  <defs>
    <linearGradient id="bg" x1="0" y1="0" x2="1" y2="1"><stop stop-color="#090d12"/><stop offset="1" stop-color="#101a22"/></linearGradient>
    <linearGradient id="line" x1="0" x2="1"><stop stop-color="#78d5ff" stop-opacity=".15"/><stop offset=".5" stop-color="#78d5ff"/><stop offset="1" stop-color="#a5f3d0" stop-opacity=".15"/></linearGradient>
  </defs>
  <rect width="1200" height="630" fill="url(#bg)"/>
  <g stroke="#27313c" stroke-width="1" opacity=".7"><path d="M0 90H1200M0 180H1200M0 270H1200M0 360H1200M0 450H1200M0 540H1200"/><path d="M100 0V630M250 0V630M400 0V630M550 0V630M700 0V630M850 0V630M1000 0V630M1150 0V630"/></g>
  <rect x="54" y="52" width="1092" height="526" rx="22" fill="none" stroke="#394653"/>
  <text x="88" y="128" fill="#78d5ff" font-family="Arial,Helvetica,sans-serif" font-size="20" font-weight="700" letter-spacing="4">MANUFACTURING · AUTOMATION · ENGINEERING PRODUCTIVITY</text>
  <text x="88" y="225" fill="#f4f7fa" font-family="Arial,Helvetica,sans-serif" font-size="64" font-weight="700">Teja K G</text>
  <text x="88" y="282" fill="#c8d1da" font-family="Arial,Helvetica,sans-serif" font-size="30">Manufacturing &amp; Engineering Productivity Engineer</text>
  <text x="88" y="350" fill="#9ba8b5" font-family="Arial,Helvetica,sans-serif" font-size="22">Manufacturing • Automation • Electronics • V&amp;V • Supplier Engineering</text>
  <g transform="translate(790 160)">
    <rect x="0" y="0" width="250" height="92" rx="12" fill="#101820" stroke="#78d5ff" stroke-width="2"/>
    <rect x="300" y="92" width="250" height="92" rx="12" fill="#101820" stroke="#78d5ff" stroke-width="2"/>
    <rect x="0" y="184" width="250" height="92" rx="12" fill="#101820" stroke="#78d5ff" stroke-width="2"/>
    <path d="M250 46H340V138" fill="none" stroke="url(#line)" stroke-width="4"/><path d="M425 184V230H250" fill="none" stroke="url(#line)" stroke-width="4"/>
    <text x="30" y="40" fill="#f4f7fa" font-family="monospace" font-size="16">MECHANICAL</text><text x="30" y="66" fill="#9ba8b5" font-family="monospace" font-size="13">PROCESS</text>
    <text x="330" y="132" fill="#f4f7fa" font-family="monospace" font-size="16">AUTOMATION</text><text x="330" y="158" fill="#9ba8b5" font-family="monospace" font-size="13">PYTHON / AI</text>
    <text x="30" y="224" fill="#f4f7fa" font-family="monospace" font-size="16">VALIDATION</text><text x="30" y="250" fill="#9ba8b5" font-family="monospace" font-size="13">MEASURED IMPACT</text>
  </g>
  <text x="88" y="510" fill="#78d5ff" font-family="monospace" font-size="18">90% cycle-time reduction · $1M+ annual savings · 50% test-cycle reduction</text>
</svg>
